<svg xmlns="http://www.w3.org/2000/svg"  viewBox="0 0 333333 333333" shape-rendering="geometricPrecision" text-rendering="geometricPrecision" image-rendering="optimizeQuality" fill-rule="evenodd" clip-rule="evenodd"><path d="M302077 0H31255C14069 0 1 14068 1 31256v270822c0 17186 14068 31254 31254 31254h270822c17186 0 31254-14068 31254-31254l2-270824C333333 14068 319265 0 302079 0h-2zm-57143 144191h-10079c-6170 0-11585-5225-12009-11235 0-32066-25852-56176-58141-56176l-29461-1c-32268 0-58435 25988-58459 58051v63694c0 32066 26191 58031 58459 58031h62915c32288 0 58389-25965 58389-58031l1-41143c0-6406-5169-13183-11620-13183l6-6zm-111975-22469h33707c6177 0 11235 5059 11235 11235 0 6178-5059 11237-11235 11237l-33707-4c-6177 0-11235-5059-11235-11235 0-6181 5059-11237 11235-11237v3zm67416 89879h-67416c-6177 0-11235-5056-11235-11235 0-6178 5059-11237 11235-11237l67416 7c6177 0 11235 5056 11235 11235 0 6177-5059 11237-11235 11237v-6z" fill="#f57d00"/></svg>